<mxfile host="app.diagrams.net" agent="Mozilla/5.0 (Windows NT 10.0; Win64; x64) AppleWebKit/537.36 (KHTML, like Gecko) Chrome/139.0.0.0 Safari/537.36" version="28.1.1">
  <diagram name="Page-1" id="6CgDFouvITcMY1lh-VWR">
    <mxGraphModel dx="1665" dy="757" grid="1" gridSize="10" guides="1" tooltips="1" connect="1" arrows="1" fold="1" page="1" pageScale="1" pageWidth="850" pageHeight="1100" math="0" shadow="0">
      <root>
        <mxCell id="0" />
        <mxCell id="1" parent="0" />
        <mxCell id="icldkge28k3d67pnXuYo-1" value="" style="sketch=0;points=[[0.015,0.015,0],[0.985,0.015,0],[0.985,0.985,0],[0.015,0.985,0],[0.25,0,0],[0.5,0,0],[0.75,0,0],[1,0.25,0],[1,0.5,0],[1,0.75,0],[0.75,1,0],[0.5,1,0],[0.25,1,0],[0,0.75,0],[0,0.5,0],[0,0.25,0]];verticalLabelPosition=bottom;html=1;verticalAlign=top;aspect=fixed;align=center;pointerEvents=1;shape=mxgraph.cisco19.rect;prIcon=l2_switch;fillColor=#FAFAFA;strokeColor=#005073;" vertex="1" parent="1">
          <mxGeometry x="175" y="690" width="40" height="40" as="geometry" />
        </mxCell>
        <mxCell id="icldkge28k3d67pnXuYo-2" value="" style="sketch=0;points=[[0.015,0.015,0],[0.985,0.015,0],[0.985,0.985,0],[0.015,0.985,0],[0.25,0,0],[0.5,0,0],[0.75,0,0],[1,0.25,0],[1,0.5,0],[1,0.75,0],[0.75,1,0],[0.5,1,0],[0.25,1,0],[0,0.75,0],[0,0.5,0],[0,0.25,0]];verticalLabelPosition=bottom;html=1;verticalAlign=top;aspect=fixed;align=center;pointerEvents=1;shape=mxgraph.cisco19.rect;prIcon=workgroup_switch;fillColor=#FAFAFA;strokeColor=#005073;" vertex="1" parent="1">
          <mxGeometry x="535" y="690" width="40" height="40" as="geometry" />
        </mxCell>
        <mxCell id="icldkge28k3d67pnXuYo-3" value="" style="sketch=0;points=[[0.015,0.015,0],[0.985,0.015,0],[0.985,0.985,0],[0.015,0.985,0],[0.25,0,0],[0.5,0,0],[0.75,0,0],[1,0.25,0],[1,0.5,0],[1,0.75,0],[0.75,1,0],[0.5,1,0],[0.25,1,0],[0,0.75,0],[0,0.5,0],[0,0.25,0]];verticalLabelPosition=bottom;html=1;verticalAlign=top;aspect=fixed;align=center;pointerEvents=1;shape=mxgraph.cisco19.rect;prIcon=workgroup_switch;fillColor=#FAFAFA;strokeColor=#005073;" vertex="1" parent="1">
          <mxGeometry x="425" y="690" width="40" height="40" as="geometry" />
        </mxCell>
        <mxCell id="icldkge28k3d67pnXuYo-4" value="" style="sketch=0;points=[[0.015,0.015,0],[0.985,0.015,0],[0.985,0.985,0],[0.015,0.985,0],[0.25,0,0],[0.5,0,0],[0.75,0,0],[1,0.25,0],[1,0.5,0],[1,0.75,0],[0.75,1,0],[0.5,1,0],[0.25,1,0],[0,0.75,0],[0,0.5,0],[0,0.25,0]];verticalLabelPosition=bottom;html=1;verticalAlign=top;aspect=fixed;align=center;pointerEvents=1;shape=mxgraph.cisco19.rect;prIcon=workgroup_switch;fillColor=#FAFAFA;strokeColor=#005073;" vertex="1" parent="1">
          <mxGeometry x="295" y="690" width="40" height="40" as="geometry" />
        </mxCell>
        <mxCell id="icldkge28k3d67pnXuYo-6" value="" style="sketch=0;points=[[0.015,0.015,0],[0.985,0.015,0],[0.985,0.985,0],[0.015,0.985,0],[0.25,0,0],[0.5,0,0],[0.75,0,0],[1,0.25,0],[1,0.5,0],[1,0.75,0],[0.75,1,0],[0.5,1,0],[0.25,1,0],[0,0.75,0],[0,0.5,0],[0,0.25,0]];verticalLabelPosition=bottom;html=1;verticalAlign=top;aspect=fixed;align=center;pointerEvents=1;shape=mxgraph.cisco19.rect;prIcon=secure_catalyst_switch_color3;fillColor=#FAFAFA;strokeColor=#005073;" vertex="1" parent="1">
          <mxGeometry x="475" y="550" width="50" height="50" as="geometry" />
        </mxCell>
        <mxCell id="icldkge28k3d67pnXuYo-7" value="" style="sketch=0;points=[[0.015,0.015,0],[0.985,0.015,0],[0.985,0.985,0],[0.015,0.985,0],[0.25,0,0],[0.5,0,0],[0.75,0,0],[1,0.25,0],[1,0.5,0],[1,0.75,0],[0.75,1,0],[0.5,1,0],[0.25,1,0],[0,0.75,0],[0,0.5,0],[0,0.25,0]];verticalLabelPosition=bottom;html=1;verticalAlign=top;aspect=fixed;align=center;pointerEvents=1;shape=mxgraph.cisco19.rect;prIcon=secure_catalyst_switch_color3;fillColor=#FAFAFA;strokeColor=#005073;" vertex="1" parent="1">
          <mxGeometry x="225" y="550" width="50" height="50" as="geometry" />
        </mxCell>
        <mxCell id="icldkge28k3d67pnXuYo-22" value="" style="points=[[0.02,0.015,0],[0.5,0,0],[0.98,0.015,0],[1,0.38,0],[0.895,0.98,0],[0.5,1,0],[0.105,0.98,0],[0,0.38,0]];verticalLabelPosition=bottom;sketch=0;html=1;verticalAlign=top;aspect=fixed;align=center;pointerEvents=1;shape=mxgraph.cisco19.secure_endpoint_pc;fillColor=#005073;strokeColor=none;" vertex="1" parent="1">
          <mxGeometry x="245" y="790" width="50" height="40" as="geometry" />
        </mxCell>
        <mxCell id="icldkge28k3d67pnXuYo-23" value="" style="points=[[0.02,0.015,0],[0.5,0,0],[0.98,0.015,0],[1,0.38,0],[0.895,0.98,0],[0.5,1,0],[0.105,0.98,0],[0,0.38,0]];verticalLabelPosition=bottom;sketch=0;html=1;verticalAlign=top;aspect=fixed;align=center;pointerEvents=1;shape=mxgraph.cisco19.secure_endpoint_pc;fillColor=#005073;strokeColor=none;" vertex="1" parent="1">
          <mxGeometry x="95" y="790" width="50" height="40" as="geometry" />
        </mxCell>
        <mxCell id="icldkge28k3d67pnXuYo-24" value="" style="points=[[0.02,0.015,0],[0.5,0,0],[0.98,0.015,0],[1,0.38,0],[0.895,0.98,0],[0.5,1,0],[0.105,0.98,0],[0,0.38,0]];verticalLabelPosition=bottom;sketch=0;html=1;verticalAlign=top;aspect=fixed;align=center;pointerEvents=1;shape=mxgraph.cisco19.secure_endpoint_pc;fillColor=#005073;strokeColor=none;" vertex="1" parent="1">
          <mxGeometry x="45" y="690" width="50" height="40" as="geometry" />
        </mxCell>
        <mxCell id="icldkge28k3d67pnXuYo-25" value="" style="points=[[0.02,0.015,0],[0.5,0,0],[0.98,0.015,0],[1,0.38,0],[0.895,0.98,0],[0.5,1,0],[0.105,0.98,0],[0,0.38,0]];verticalLabelPosition=bottom;sketch=0;html=1;verticalAlign=top;aspect=fixed;align=center;pointerEvents=1;shape=mxgraph.cisco19.secure_endpoint_pc;fillColor=#005073;strokeColor=none;" vertex="1" parent="1">
          <mxGeometry x="405" y="790" width="50" height="40" as="geometry" />
        </mxCell>
        <mxCell id="icldkge28k3d67pnXuYo-26" value="" style="points=[[0.02,0.015,0],[0.5,0,0],[0.98,0.015,0],[1,0.38,0],[0.895,0.98,0],[0.5,1,0],[0.105,0.98,0],[0,0.38,0]];verticalLabelPosition=bottom;sketch=0;html=1;verticalAlign=top;aspect=fixed;align=center;pointerEvents=1;shape=mxgraph.cisco19.secure_endpoint_pc;fillColor=#005073;strokeColor=none;" vertex="1" parent="1">
          <mxGeometry x="485" y="790" width="50" height="40" as="geometry" />
        </mxCell>
        <mxCell id="icldkge28k3d67pnXuYo-27" value="" style="points=[[0.02,0.015,0],[0.5,0,0],[0.98,0.015,0],[1,0.38,0],[0.895,0.98,0],[0.5,1,0],[0.105,0.98,0],[0,0.38,0]];verticalLabelPosition=bottom;sketch=0;html=1;verticalAlign=top;aspect=fixed;align=center;pointerEvents=1;shape=mxgraph.cisco19.secure_endpoint_pc;fillColor=#005073;strokeColor=none;" vertex="1" parent="1">
          <mxGeometry x="325" y="790" width="50" height="40" as="geometry" />
        </mxCell>
        <mxCell id="icldkge28k3d67pnXuYo-29" value="" style="points=[[0.02,0.015,0],[0.5,0,0],[0.98,0.015,0],[1,0.38,0],[0.895,0.98,0],[0.5,1,0],[0.105,0.98,0],[0,0.38,0]];verticalLabelPosition=bottom;sketch=0;html=1;verticalAlign=top;aspect=fixed;align=center;pointerEvents=1;shape=mxgraph.cisco19.secure_endpoint_pc;fillColor=#005073;strokeColor=none;" vertex="1" parent="1">
          <mxGeometry x="655" y="690" width="50" height="40" as="geometry" />
        </mxCell>
        <mxCell id="icldkge28k3d67pnXuYo-31" value="" style="points=[[0.02,0.015,0],[0.5,0,0],[0.98,0.015,0],[1,0.38,0],[0.895,0.98,0],[0.5,1,0],[0.105,0.98,0],[0,0.38,0]];verticalLabelPosition=bottom;sketch=0;html=1;verticalAlign=top;aspect=fixed;align=center;pointerEvents=1;shape=mxgraph.cisco19.secure_endpoint_pc;fillColor=#005073;strokeColor=none;" vertex="1" parent="1">
          <mxGeometry x="615" y="780" width="50" height="40" as="geometry" />
        </mxCell>
        <mxCell id="icldkge28k3d67pnXuYo-54" value="" style="endArrow=none;html=1;rounded=0;entryX=0.015;entryY=0.985;entryDx=0;entryDy=0;entryPerimeter=0;" edge="1" parent="1" target="icldkge28k3d67pnXuYo-4">
          <mxGeometry width="50" height="50" relative="1" as="geometry">
            <mxPoint x="265" y="790" as="sourcePoint" />
            <mxPoint x="315" y="740" as="targetPoint" />
          </mxGeometry>
        </mxCell>
        <mxCell id="icldkge28k3d67pnXuYo-55" value="" style="endArrow=none;html=1;rounded=0;entryX=0.985;entryY=0.985;entryDx=0;entryDy=0;entryPerimeter=0;" edge="1" parent="1" target="icldkge28k3d67pnXuYo-4">
          <mxGeometry width="50" height="50" relative="1" as="geometry">
            <mxPoint x="365" y="791" as="sourcePoint" />
            <mxPoint x="396" y="730" as="targetPoint" />
          </mxGeometry>
        </mxCell>
        <mxCell id="icldkge28k3d67pnXuYo-56" value="" style="endArrow=none;html=1;rounded=0;entryX=0.25;entryY=1;entryDx=0;entryDy=0;entryPerimeter=0;" edge="1" parent="1" target="icldkge28k3d67pnXuYo-3">
          <mxGeometry width="50" height="50" relative="1" as="geometry">
            <mxPoint x="420" y="790" as="sourcePoint" />
            <mxPoint x="470" y="740" as="targetPoint" />
          </mxGeometry>
        </mxCell>
        <mxCell id="icldkge28k3d67pnXuYo-57" value="" style="endArrow=none;html=1;rounded=0;entryX=0.985;entryY=0.985;entryDx=0;entryDy=0;entryPerimeter=0;" edge="1" parent="1" target="icldkge28k3d67pnXuYo-3">
          <mxGeometry width="50" height="50" relative="1" as="geometry">
            <mxPoint x="510" y="790" as="sourcePoint" />
            <mxPoint x="525" y="730" as="targetPoint" />
          </mxGeometry>
        </mxCell>
        <mxCell id="icldkge28k3d67pnXuYo-58" value="" style="image;aspect=fixed;perimeter=ellipsePerimeter;html=1;align=center;shadow=0;dashed=0;spacingTop=3;image=img/lib/active_directory/windows_server_2.svg;" vertex="1" parent="1">
          <mxGeometry x="705" y="585" width="40" height="50" as="geometry" />
        </mxCell>
        <mxCell id="icldkge28k3d67pnXuYo-60" value="" style="sketch=0;points=[[0.015,0.015,0],[0.985,0.015,0],[0.985,0.985,0],[0.015,0.985,0],[0.25,0,0],[0.5,0,0],[0.75,0,0],[1,0.25,0],[1,0.5,0],[1,0.75,0],[0.75,1,0],[0.5,1,0],[0.25,1,0],[0,0.75,0],[0,0.5,0],[0,0.25,0]];verticalLabelPosition=bottom;html=1;verticalAlign=top;aspect=fixed;align=center;pointerEvents=1;shape=mxgraph.cisco19.rect;prIcon=workgroup_switch;fillColor=#FAFAFA;strokeColor=#005073;" vertex="1" parent="1">
          <mxGeometry x="595" y="555" width="40" height="40" as="geometry" />
        </mxCell>
        <mxCell id="icldkge28k3d67pnXuYo-64" value="" style="sketch=0;verticalLabelPosition=bottom;sketch=0;aspect=fixed;html=1;verticalAlign=top;strokeColor=none;fillColor=#000000;align=center;outlineConnect=0;pointerEvents=1;shape=mxgraph.citrix2.router;" vertex="1" parent="1">
          <mxGeometry x="225" y="440" width="50" height="50" as="geometry" />
        </mxCell>
        <mxCell id="icldkge28k3d67pnXuYo-65" value="" style="sketch=0;verticalLabelPosition=bottom;sketch=0;aspect=fixed;html=1;verticalAlign=top;strokeColor=none;fillColor=#000000;align=center;outlineConnect=0;pointerEvents=1;shape=mxgraph.citrix2.router;" vertex="1" parent="1">
          <mxGeometry x="475" y="440" width="50" height="50" as="geometry" />
        </mxCell>
        <mxCell id="icldkge28k3d67pnXuYo-67" value="" style="endArrow=none;dashed=1;html=1;rounded=0;entryX=0.25;entryY=1;entryDx=0;entryDy=0;entryPerimeter=0;" edge="1" parent="1" target="icldkge28k3d67pnXuYo-7">
          <mxGeometry width="50" height="50" relative="1" as="geometry">
            <mxPoint x="195" y="690" as="sourcePoint" />
            <mxPoint x="245" y="640" as="targetPoint" />
          </mxGeometry>
        </mxCell>
        <mxCell id="icldkge28k3d67pnXuYo-68" value="" style="endArrow=none;dashed=1;html=1;rounded=0;" edge="1" parent="1" target="icldkge28k3d67pnXuYo-7">
          <mxGeometry width="50" height="50" relative="1" as="geometry">
            <mxPoint x="315" y="690" as="sourcePoint" />
            <mxPoint x="358" y="600" as="targetPoint" />
          </mxGeometry>
        </mxCell>
        <mxCell id="icldkge28k3d67pnXuYo-69" value="" style="endArrow=none;dashed=1;html=1;rounded=0;entryX=0;entryY=0.5;entryDx=0;entryDy=0;entryPerimeter=0;" edge="1" parent="1" target="icldkge28k3d67pnXuYo-6">
          <mxGeometry width="50" height="50" relative="1" as="geometry">
            <mxPoint x="196" y="690" as="sourcePoint" />
            <mxPoint x="145" y="600" as="targetPoint" />
          </mxGeometry>
        </mxCell>
        <mxCell id="icldkge28k3d67pnXuYo-70" value="" style="endArrow=none;dashed=1;html=1;rounded=0;entryX=0;entryY=0.5;entryDx=0;entryDy=0;entryPerimeter=0;" edge="1" parent="1" target="icldkge28k3d67pnXuYo-6">
          <mxGeometry width="50" height="50" relative="1" as="geometry">
            <mxPoint x="305.5" y="690" as="sourcePoint" />
            <mxPoint x="584.5" y="575" as="targetPoint" />
          </mxGeometry>
        </mxCell>
        <mxCell id="icldkge28k3d67pnXuYo-71" value="" style="endArrow=none;dashed=1;html=1;rounded=0;entryX=0.5;entryY=1;entryDx=0;entryDy=0;entryPerimeter=0;" edge="1" parent="1" target="icldkge28k3d67pnXuYo-6">
          <mxGeometry width="50" height="50" relative="1" as="geometry">
            <mxPoint x="445" y="690" as="sourcePoint" />
            <mxPoint x="724" y="575" as="targetPoint" />
          </mxGeometry>
        </mxCell>
        <mxCell id="icldkge28k3d67pnXuYo-72" value="" style="endArrow=none;dashed=1;html=1;rounded=0;entryX=0.75;entryY=1;entryDx=0;entryDy=0;entryPerimeter=0;" edge="1" parent="1" target="icldkge28k3d67pnXuYo-6">
          <mxGeometry width="50" height="50" relative="1" as="geometry">
            <mxPoint x="545" y="690" as="sourcePoint" />
            <mxPoint x="600" y="600" as="targetPoint" />
          </mxGeometry>
        </mxCell>
        <mxCell id="icldkge28k3d67pnXuYo-73" value="" style="endArrow=none;dashed=1;html=1;rounded=0;entryX=1;entryY=0.5;entryDx=0;entryDy=0;entryPerimeter=0;" edge="1" parent="1" target="icldkge28k3d67pnXuYo-7">
          <mxGeometry width="50" height="50" relative="1" as="geometry">
            <mxPoint x="445.5" y="690" as="sourcePoint" />
            <mxPoint x="615" y="575" as="targetPoint" />
          </mxGeometry>
        </mxCell>
        <mxCell id="icldkge28k3d67pnXuYo-74" value="" style="endArrow=none;dashed=1;html=1;rounded=0;entryX=1;entryY=0.5;entryDx=0;entryDy=0;entryPerimeter=0;" edge="1" parent="1" target="icldkge28k3d67pnXuYo-7">
          <mxGeometry width="50" height="50" relative="1" as="geometry">
            <mxPoint x="545.5" y="690" as="sourcePoint" />
            <mxPoint x="375" y="575" as="targetPoint" />
          </mxGeometry>
        </mxCell>
        <mxCell id="icldkge28k3d67pnXuYo-77" value="" style="endArrow=none;html=1;rounded=0;entryX=0;entryY=0.5;entryDx=0;entryDy=0;entryPerimeter=0;" edge="1" parent="1" target="icldkge28k3d67pnXuYo-1">
          <mxGeometry width="50" height="50" relative="1" as="geometry">
            <mxPoint x="95" y="710" as="sourcePoint" />
            <mxPoint x="145" y="660" as="targetPoint" />
          </mxGeometry>
        </mxCell>
        <mxCell id="icldkge28k3d67pnXuYo-78" value="" style="endArrow=none;html=1;rounded=0;entryX=0.015;entryY=0.985;entryDx=0;entryDy=0;entryPerimeter=0;exitX=0.68;exitY=0;exitDx=0;exitDy=0;exitPerimeter=0;" edge="1" parent="1" source="icldkge28k3d67pnXuYo-23" target="icldkge28k3d67pnXuYo-1">
          <mxGeometry width="50" height="50" relative="1" as="geometry">
            <mxPoint x="115" y="789" as="sourcePoint" />
            <mxPoint x="195" y="789" as="targetPoint" />
          </mxGeometry>
        </mxCell>
        <mxCell id="icldkge28k3d67pnXuYo-81" value="" style="endArrow=none;html=1;rounded=0;entryX=0.75;entryY=1;entryDx=0;entryDy=0;entryPerimeter=0;exitX=0.16;exitY=-0.025;exitDx=0;exitDy=0;exitPerimeter=0;" edge="1" parent="1" source="icldkge28k3d67pnXuYo-31" target="icldkge28k3d67pnXuYo-2">
          <mxGeometry width="50" height="50" relative="1" as="geometry">
            <mxPoint x="645" y="780" as="sourcePoint" />
            <mxPoint x="695" y="730" as="targetPoint" />
          </mxGeometry>
        </mxCell>
        <mxCell id="icldkge28k3d67pnXuYo-83" value="" style="endArrow=none;html=1;rounded=0;entryX=1;entryY=0.5;entryDx=0;entryDy=0;entryPerimeter=0;exitX=0.16;exitY=-0.025;exitDx=0;exitDy=0;exitPerimeter=0;" edge="1" parent="1" target="icldkge28k3d67pnXuYo-2">
          <mxGeometry width="50" height="50" relative="1" as="geometry">
            <mxPoint x="655" y="709" as="sourcePoint" />
            <mxPoint x="597" y="660" as="targetPoint" />
          </mxGeometry>
        </mxCell>
        <mxCell id="icldkge28k3d67pnXuYo-84" value="" style="endArrow=none;html=1;rounded=0;exitX=0.5;exitY=0;exitDx=0;exitDy=0;exitPerimeter=0;" edge="1" parent="1" source="icldkge28k3d67pnXuYo-7" target="icldkge28k3d67pnXuYo-64">
          <mxGeometry width="50" height="50" relative="1" as="geometry">
            <mxPoint x="255" y="550" as="sourcePoint" />
            <mxPoint x="305" y="500" as="targetPoint" />
          </mxGeometry>
        </mxCell>
        <mxCell id="icldkge28k3d67pnXuYo-85" value="" style="endArrow=none;html=1;rounded=0;exitX=0.5;exitY=0;exitDx=0;exitDy=0;exitPerimeter=0;" edge="1" parent="1">
          <mxGeometry width="50" height="50" relative="1" as="geometry">
            <mxPoint x="499.5" y="550" as="sourcePoint" />
            <mxPoint x="499.5" y="490" as="targetPoint" />
          </mxGeometry>
        </mxCell>
        <mxCell id="icldkge28k3d67pnXuYo-87" value="" style="endArrow=none;html=1;rounded=0;" edge="1" parent="1" target="icldkge28k3d67pnXuYo-65">
          <mxGeometry width="50" height="50" relative="1" as="geometry">
            <mxPoint x="275" y="550" as="sourcePoint" />
            <mxPoint x="325" y="500" as="targetPoint" />
          </mxGeometry>
        </mxCell>
        <mxCell id="icldkge28k3d67pnXuYo-88" value="" style="endArrow=none;html=1;rounded=0;" edge="1" parent="1" source="icldkge28k3d67pnXuYo-64">
          <mxGeometry width="50" height="50" relative="1" as="geometry">
            <mxPoint x="275" y="626" as="sourcePoint" />
            <mxPoint x="475" y="550" as="targetPoint" />
          </mxGeometry>
        </mxCell>
        <mxCell id="icldkge28k3d67pnXuYo-93" value="" style="sketch=0;points=[[0.015,0.015,0],[0.985,0.015,0],[0.985,0.985,0],[0.015,0.985,0],[0.25,0,0],[0.5,0,0],[0.75,0,0],[1,0.25,0],[1,0.5,0],[1,0.75,0],[0.75,1,0],[0.5,1,0],[0.25,1,0],[0,0.75,0],[0,0.5,0],[0,0.25,0]];verticalLabelPosition=bottom;html=1;verticalAlign=top;aspect=fixed;align=center;pointerEvents=1;shape=mxgraph.cisco19.rect;prIcon=ips_ids;fillColor=#FAFAFA;strokeColor=#005073;" vertex="1" parent="1">
          <mxGeometry x="225" y="290" width="51.2" height="40" as="geometry" />
        </mxCell>
        <mxCell id="icldkge28k3d67pnXuYo-94" value="" style="ellipse;shape=cloud;whiteSpace=wrap;html=1;" vertex="1" parent="1">
          <mxGeometry x="345" y="290" width="80" height="40" as="geometry" />
        </mxCell>
        <mxCell id="icldkge28k3d67pnXuYo-95" value="&lt;div&gt;&lt;br&gt;&lt;/div&gt;&lt;div&gt;&lt;br&gt;&lt;/div&gt;&lt;div&gt;&lt;br&gt;&lt;/div&gt;&lt;div&gt;&lt;br&gt;&lt;/div&gt;" style="fillColor=none;strokeColor=#147EBA;dashed=1;verticalAlign=top;fontStyle=0;fontColor=#147EBA;whiteSpace=wrap;html=1;" vertex="1" parent="1">
          <mxGeometry x="25" y="360" width="140" height="70" as="geometry" />
        </mxCell>
        <mxCell id="icldkge28k3d67pnXuYo-96" value="" style="image;aspect=fixed;perimeter=ellipsePerimeter;html=1;align=center;shadow=0;dashed=0;spacingTop=3;image=img/lib/active_directory/web_server.svg;" vertex="1" parent="1">
          <mxGeometry x="35" y="370" width="40" height="50" as="geometry" />
        </mxCell>
        <mxCell id="icldkge28k3d67pnXuYo-97" value="" style="fillColorStyles=neutralFill;neutralFill=#9DA6A8;shape=mxgraph.networks2.icon;aspect=fixed;fillColor=#EDEDED;strokeColor=#000000;gradientColor=#5B6163;network2IconShadow=1;network2bgFillColor=none;network2Icon=mxgraph.networks2.mail_server;network2IconYOffset=-0.02556;network2IconW=1;network2IconH=0.7875;" vertex="1" parent="1">
          <mxGeometry x="105" y="375.31" width="50" height="39.375" as="geometry" />
        </mxCell>
        <mxCell id="icldkge28k3d67pnXuYo-98" value="" style="endArrow=none;html=1;rounded=0;exitX=1;exitY=0.5;exitDx=0;exitDy=0;entryX=0;entryY=0.5;entryDx=0;entryDy=0;" edge="1" parent="1" source="icldkge28k3d67pnXuYo-95" target="icldkge28k3d67pnXuYo-89">
          <mxGeometry width="50" height="50" relative="1" as="geometry">
            <mxPoint x="184.75" y="440" as="sourcePoint" />
            <mxPoint x="234.75" y="390" as="targetPoint" />
          </mxGeometry>
        </mxCell>
        <mxCell id="icldkge28k3d67pnXuYo-101" value="" style="endArrow=none;html=1;rounded=0;" edge="1" parent="1" source="icldkge28k3d67pnXuYo-93" target="icldkge28k3d67pnXuYo-94">
          <mxGeometry width="50" height="50" relative="1" as="geometry">
            <mxPoint x="345" y="370" as="sourcePoint" />
            <mxPoint x="395" y="320" as="targetPoint" />
          </mxGeometry>
        </mxCell>
        <mxCell id="icldkge28k3d67pnXuYo-89" value="" style="image;aspect=fixed;perimeter=ellipsePerimeter;html=1;align=center;shadow=0;dashed=0;spacingTop=3;image=img/lib/active_directory/firewall.svg;" vertex="1" parent="1">
          <mxGeometry x="235.7" y="370" width="30.5" height="50" as="geometry" />
        </mxCell>
        <mxCell id="icldkge28k3d67pnXuYo-105" value="" style="endArrow=none;html=1;rounded=0;entryX=0.5;entryY=1;entryDx=0;entryDy=0;entryPerimeter=0;exitX=0.5;exitY=0;exitDx=0;exitDy=0;" edge="1" parent="1" source="icldkge28k3d67pnXuYo-89" target="icldkge28k3d67pnXuYo-93">
          <mxGeometry width="50" height="50" relative="1" as="geometry">
            <mxPoint x="245" y="360" as="sourcePoint" />
            <mxPoint x="295" y="310" as="targetPoint" />
          </mxGeometry>
        </mxCell>
        <mxCell id="icldkge28k3d67pnXuYo-106" value="" style="endArrow=none;html=1;rounded=0;" edge="1" parent="1" source="icldkge28k3d67pnXuYo-64" target="icldkge28k3d67pnXuYo-89">
          <mxGeometry width="50" height="50" relative="1" as="geometry">
            <mxPoint x="245" y="430" as="sourcePoint" />
            <mxPoint x="245" y="390" as="targetPoint" />
          </mxGeometry>
        </mxCell>
        <mxCell id="icldkge28k3d67pnXuYo-110" value="DMZ" style="text;strokeColor=none;align=center;fillColor=none;html=1;verticalAlign=middle;whiteSpace=wrap;rounded=0;" vertex="1" parent="1">
          <mxGeometry x="65" y="330" width="60" height="30" as="geometry" />
        </mxCell>
        <mxCell id="icldkge28k3d67pnXuYo-112" value="Win-Server" style="text;strokeColor=none;align=center;fillColor=none;html=1;verticalAlign=middle;whiteSpace=wrap;rounded=0;" vertex="1" parent="1">
          <mxGeometry x="665" y="560" width="100" height="30" as="geometry" />
        </mxCell>
        <mxCell id="icldkge28k3d67pnXuYo-167" value="&lt;font style=&quot;font-size: 18px;&quot;&gt;HQ&lt;/font&gt;" style="text;strokeColor=none;align=center;fillColor=none;html=1;verticalAlign=middle;whiteSpace=wrap;rounded=0;" vertex="1" parent="1">
          <mxGeometry x="345" y="385.31" width="80" height="34.69" as="geometry" />
        </mxCell>
        <mxCell id="icldkge28k3d67pnXuYo-165" value="&lt;div&gt;&lt;br&gt;&lt;/div&gt;&lt;div&gt;&lt;br&gt;&lt;/div&gt;&lt;div&gt;&lt;br&gt;&lt;/div&gt;&lt;div&gt;&lt;br&gt;&lt;/div&gt;" style="fillColor=none;strokeColor=#6E341F;dashed=1;verticalAlign=top;fontStyle=0;fontColor=#6E341F;whiteSpace=wrap;html=1;" vertex="1" parent="1">
          <mxGeometry x="10" y="222.5" width="820" height="620" as="geometry" />
        </mxCell>
        <mxCell id="icldkge28k3d67pnXuYo-169" value="Internet" style="text;strokeColor=none;align=center;fillColor=none;html=1;verticalAlign=middle;whiteSpace=wrap;rounded=0;" vertex="1" parent="1">
          <mxGeometry x="355" y="270" width="60" height="30" as="geometry" />
        </mxCell>
        <mxCell id="icldkge28k3d67pnXuYo-176" value="3-Tier Architecture" style="text;strokeColor=none;align=center;fillColor=none;html=1;verticalAlign=middle;whiteSpace=wrap;rounded=0;" vertex="1" parent="1">
          <mxGeometry x="65" y="535" width="115" height="30" as="geometry" />
        </mxCell>
        <mxCell id="icldkge28k3d67pnXuYo-178" value="" style="endArrow=none;html=1;rounded=0;exitX=1;exitY=0.75;exitDx=0;exitDy=0;exitPerimeter=0;entryX=0;entryY=0.5;entryDx=0;entryDy=0;" edge="1" parent="1" source="icldkge28k3d67pnXuYo-60" target="icldkge28k3d67pnXuYo-58">
          <mxGeometry width="50" height="50" relative="1" as="geometry">
            <mxPoint x="635" y="595" as="sourcePoint" />
            <mxPoint x="700" y="610" as="targetPoint" />
          </mxGeometry>
        </mxCell>
        <mxCell id="icldkge28k3d67pnXuYo-179" value="" style="shape=mxgraph.cisco.controllers_and_modules.system_controller;html=1;pointerEvents=1;dashed=0;fillColor=#036897;strokeColor=#ffffff;strokeWidth=2;verticalLabelPosition=bottom;verticalAlign=top;align=center;outlineConnect=0;" vertex="1" parent="1">
          <mxGeometry x="696" y="515" width="58" height="35" as="geometry" />
        </mxCell>
        <mxCell id="icldkge28k3d67pnXuYo-180" value="" style="endArrow=none;html=1;rounded=0;exitX=1;exitY=0.25;exitDx=0;exitDy=0;exitPerimeter=0;" edge="1" parent="1" source="icldkge28k3d67pnXuYo-60" target="icldkge28k3d67pnXuYo-179">
          <mxGeometry width="50" height="50" relative="1" as="geometry">
            <mxPoint x="642" y="585" as="sourcePoint" />
            <mxPoint x="692" y="535" as="targetPoint" />
          </mxGeometry>
        </mxCell>
        <mxCell id="icldkge28k3d67pnXuYo-181" value="SDN Controller" style="text;strokeColor=none;align=center;fillColor=none;html=1;verticalAlign=middle;whiteSpace=wrap;rounded=0;" vertex="1" parent="1">
          <mxGeometry x="694" y="480" width="60" height="30" as="geometry" />
        </mxCell>
        <mxCell id="icldkge28k3d67pnXuYo-182" value="" style="endArrow=none;html=1;rounded=0;entryX=0;entryY=0.5;entryDx=0;entryDy=0;entryPerimeter=0;exitX=1;exitY=0.5;exitDx=0;exitDy=0;exitPerimeter=0;" edge="1" parent="1" source="icldkge28k3d67pnXuYo-6" target="icldkge28k3d67pnXuYo-60">
          <mxGeometry width="50" height="50" relative="1" as="geometry">
            <mxPoint x="530" y="560" as="sourcePoint" />
            <mxPoint x="580" y="510" as="targetPoint" />
          </mxGeometry>
        </mxCell>
        <mxCell id="icldkge28k3d67pnXuYo-183" value="" style="ellipse;shape=cloud;whiteSpace=wrap;html=1;" vertex="1" parent="1">
          <mxGeometry x="470" y="330" width="90" height="50" as="geometry" />
        </mxCell>
        <mxCell id="icldkge28k3d67pnXuYo-184" value="" style="endArrow=none;html=1;rounded=0;exitX=0.5;exitY=0.2;exitDx=0;exitDy=0;exitPerimeter=0;entryX=0.31;entryY=0.8;entryDx=0;entryDy=0;entryPerimeter=0;" edge="1" parent="1" source="icldkge28k3d67pnXuYo-65" target="icldkge28k3d67pnXuYo-183">
          <mxGeometry width="50" height="50" relative="1" as="geometry">
            <mxPoint x="500" y="440" as="sourcePoint" />
            <mxPoint x="550" y="380" as="targetPoint" />
          </mxGeometry>
        </mxCell>
        <mxCell id="icldkge28k3d67pnXuYo-185" value="" style="sketch=0;verticalLabelPosition=bottom;sketch=0;aspect=fixed;html=1;verticalAlign=top;strokeColor=none;fillColor=#000000;align=center;outlineConnect=0;pointerEvents=1;shape=mxgraph.citrix2.router;" vertex="1" parent="1">
          <mxGeometry x="560" y="275.30999999999995" width="54.69" height="54.69" as="geometry" />
        </mxCell>
        <mxCell id="icldkge28k3d67pnXuYo-187" value="" style="endArrow=none;html=1;rounded=0;exitX=0.88;exitY=0.25;exitDx=0;exitDy=0;exitPerimeter=0;" edge="1" parent="1" source="icldkge28k3d67pnXuYo-183" target="icldkge28k3d67pnXuYo-185">
          <mxGeometry width="50" height="50" relative="1" as="geometry">
            <mxPoint x="585" y="340" as="sourcePoint" />
            <mxPoint x="635" y="290" as="targetPoint" />
          </mxGeometry>
        </mxCell>
        <mxCell id="icldkge28k3d67pnXuYo-188" value="" style="sketch=0;points=[[0.015,0.015,0],[0.985,0.015,0],[0.985,0.985,0],[0.015,0.985,0],[0.25,0,0],[0.5,0,0],[0.75,0,0],[1,0.25,0],[1,0.5,0],[1,0.75,0],[0.75,1,0],[0.5,1,0],[0.25,1,0],[0,0.75,0],[0,0.5,0],[0,0.25,0]];verticalLabelPosition=bottom;html=1;verticalAlign=top;aspect=fixed;align=center;pointerEvents=1;shape=mxgraph.cisco19.rect;prIcon=l2_switch;fillColor=#FAFAFA;strokeColor=#005073;" vertex="1" parent="1">
          <mxGeometry x="650" y="235.30999999999997" width="40" height="40" as="geometry" />
        </mxCell>
        <mxCell id="icldkge28k3d67pnXuYo-189" value="" style="sketch=0;points=[[0.015,0.015,0],[0.985,0.015,0],[0.985,0.985,0],[0.015,0.985,0],[0.25,0,0],[0.5,0,0],[0.75,0,0],[1,0.25,0],[1,0.5,0],[1,0.75,0],[0.75,1,0],[0.5,1,0],[0.25,1,0],[0,0.75,0],[0,0.5,0],[0,0.25,0]];verticalLabelPosition=bottom;html=1;verticalAlign=top;aspect=fixed;align=center;pointerEvents=1;shape=mxgraph.cisco19.rect;prIcon=l2_switch;fillColor=#FAFAFA;strokeColor=#005073;" vertex="1" parent="1">
          <mxGeometry x="650" y="345" width="40" height="40" as="geometry" />
        </mxCell>
        <mxCell id="icldkge28k3d67pnXuYo-190" value="" style="points=[[0.02,0.015,0],[0.5,0,0],[0.98,0.015,0],[1,0.38,0],[0.895,0.98,0],[0.5,1,0],[0.105,0.98,0],[0,0.38,0]];verticalLabelPosition=bottom;sketch=0;html=1;verticalAlign=top;aspect=fixed;align=center;pointerEvents=1;shape=mxgraph.cisco19.secure_endpoint_pc;fillColor=#005073;strokeColor=none;" vertex="1" parent="1">
          <mxGeometry x="745" y="350" width="50" height="40" as="geometry" />
        </mxCell>
        <mxCell id="icldkge28k3d67pnXuYo-191" value="" style="points=[[0.02,0.015,0],[0.5,0,0],[0.98,0.015,0],[1,0.38,0],[0.895,0.98,0],[0.5,1,0],[0.105,0.98,0],[0,0.38,0]];verticalLabelPosition=bottom;sketch=0;html=1;verticalAlign=top;aspect=fixed;align=center;pointerEvents=1;shape=mxgraph.cisco19.secure_endpoint_pc;fillColor=#005073;strokeColor=none;" vertex="1" parent="1">
          <mxGeometry x="745" y="240" width="50" height="40" as="geometry" />
        </mxCell>
        <mxCell id="icldkge28k3d67pnXuYo-196" value="" style="endArrow=none;html=1;rounded=0;entryX=0;entryY=0.38;entryDx=0;entryDy=0;entryPerimeter=0;exitX=1;exitY=0.5;exitDx=0;exitDy=0;exitPerimeter=0;" edge="1" parent="1" source="icldkge28k3d67pnXuYo-188" target="icldkge28k3d67pnXuYo-191">
          <mxGeometry width="50" height="50" relative="1" as="geometry">
            <mxPoint x="690" y="310" as="sourcePoint" />
            <mxPoint x="740" y="260" as="targetPoint" />
          </mxGeometry>
        </mxCell>
        <mxCell id="icldkge28k3d67pnXuYo-197" value="" style="endArrow=none;html=1;rounded=0;entryX=0;entryY=0.38;entryDx=0;entryDy=0;entryPerimeter=0;exitX=1;exitY=0.5;exitDx=0;exitDy=0;exitPerimeter=0;" edge="1" parent="1" source="icldkge28k3d67pnXuYo-189" target="icldkge28k3d67pnXuYo-190">
          <mxGeometry width="50" height="50" relative="1" as="geometry">
            <mxPoint x="680" y="410" as="sourcePoint" />
            <mxPoint x="730" y="360" as="targetPoint" />
          </mxGeometry>
        </mxCell>
        <mxCell id="icldkge28k3d67pnXuYo-198" value="" style="endArrow=none;html=1;rounded=0;entryX=0;entryY=0.5;entryDx=0;entryDy=0;entryPerimeter=0;" edge="1" parent="1" source="icldkge28k3d67pnXuYo-185" target="icldkge28k3d67pnXuYo-188">
          <mxGeometry width="50" height="50" relative="1" as="geometry">
            <mxPoint x="575" y="250" as="sourcePoint" />
            <mxPoint x="625" y="200" as="targetPoint" />
          </mxGeometry>
        </mxCell>
        <mxCell id="icldkge28k3d67pnXuYo-199" value="" style="endArrow=none;html=1;rounded=0;entryX=0;entryY=0.5;entryDx=0;entryDy=0;entryPerimeter=0;" edge="1" parent="1" source="icldkge28k3d67pnXuYo-185" target="icldkge28k3d67pnXuYo-189">
          <mxGeometry width="50" height="50" relative="1" as="geometry">
            <mxPoint x="585" y="414.68" as="sourcePoint" />
            <mxPoint x="635" y="364.68" as="targetPoint" />
          </mxGeometry>
        </mxCell>
        <mxCell id="icldkge28k3d67pnXuYo-200" value="&lt;font style=&quot;font-size: 14px;&quot;&gt;B1&lt;/font&gt;" style="text;strokeColor=none;align=center;fillColor=none;html=1;verticalAlign=middle;whiteSpace=wrap;rounded=0;" vertex="1" parent="1">
          <mxGeometry x="690" y="295" width="60" height="30" as="geometry" />
        </mxCell>
        <mxCell id="icldkge28k3d67pnXuYo-201" value="&lt;div&gt;&lt;br&gt;&lt;/div&gt;&lt;div&gt;&lt;br&gt;&lt;/div&gt;&lt;div&gt;&lt;br&gt;&lt;/div&gt;&lt;div&gt;&lt;br&gt;&lt;/div&gt;" style="fillColor=none;strokeColor=#6E341F;dashed=1;verticalAlign=top;fontStyle=0;fontColor=#6E341F;whiteSpace=wrap;html=1;" vertex="1" parent="1">
          <mxGeometry x="560" y="227.5" width="260" height="192.5" as="geometry" />
        </mxCell>
        <mxCell id="icldkge28k3d67pnXuYo-202" value="&lt;div&gt;&lt;br&gt;&lt;/div&gt;&lt;div&gt;&lt;br&gt;&lt;/div&gt;&lt;div&gt;&lt;br&gt;&lt;/div&gt;&lt;div&gt;&lt;br&gt;&lt;/div&gt;" style="fillColor=none;strokeColor=#6E341F;dashed=1;verticalAlign=top;fontStyle=0;fontColor=#6E341F;whiteSpace=wrap;html=1;" vertex="1" parent="1">
          <mxGeometry x="140" y="430" width="510" height="80" as="geometry" />
        </mxCell>
        <mxCell id="icldkge28k3d67pnXuYo-203" value="&lt;div&gt;&lt;br&gt;&lt;/div&gt;&lt;div&gt;&lt;br&gt;&lt;/div&gt;&lt;div&gt;&lt;br&gt;&lt;/div&gt;&lt;div&gt;&lt;br&gt;&lt;/div&gt;" style="fillColor=none;strokeColor=#6E341F;dashed=1;verticalAlign=top;fontStyle=0;fontColor=#6E341F;whiteSpace=wrap;html=1;" vertex="1" parent="1">
          <mxGeometry x="190" y="535" width="390" height="75" as="geometry" />
        </mxCell>
        <mxCell id="icldkge28k3d67pnXuYo-204" value="&lt;div&gt;&lt;br&gt;&lt;/div&gt;&lt;div&gt;&lt;br&gt;&lt;/div&gt;&lt;div&gt;&lt;br&gt;&lt;/div&gt;&lt;div&gt;&lt;br&gt;&lt;/div&gt;" style="fillColor=none;strokeColor=#6E341F;dashed=1;verticalAlign=top;fontStyle=0;fontColor=#6E341F;whiteSpace=wrap;html=1;" vertex="1" parent="1">
          <mxGeometry x="145" y="671.25" width="490" height="77.5" as="geometry" />
        </mxCell>
        <mxCell id="icldkge28k3d67pnXuYo-205" value="CORE" style="text;strokeColor=none;align=center;fillColor=none;html=1;verticalAlign=middle;whiteSpace=wrap;rounded=0;" vertex="1" parent="1">
          <mxGeometry x="345" y="455" width="60" height="30" as="geometry" />
        </mxCell>
        <mxCell id="icldkge28k3d67pnXuYo-206" value="Distributaion" style="text;strokeColor=none;align=center;fillColor=none;html=1;verticalAlign=middle;whiteSpace=wrap;rounded=0;" vertex="1" parent="1">
          <mxGeometry x="345" y="557.5" width="60" height="30" as="geometry" />
        </mxCell>
        <mxCell id="icldkge28k3d67pnXuYo-207" value="Access" style="text;strokeColor=none;align=center;fillColor=none;html=1;verticalAlign=middle;whiteSpace=wrap;rounded=0;" vertex="1" parent="1">
          <mxGeometry x="345" y="695" width="60" height="30" as="geometry" />
        </mxCell>
        <mxCell id="icldkge28k3d67pnXuYo-208" value="Protocols &amp;amp; features&lt;div&gt;-OSPF&lt;/div&gt;&lt;div&gt;-HSRP&lt;/div&gt;&lt;div&gt;-LACP&lt;/div&gt;&lt;div&gt;-VLAN&lt;/div&gt;&lt;div&gt;-NAT&lt;/div&gt;&lt;div&gt;-ACL&lt;/div&gt;&lt;div&gt;-DHCP&lt;/div&gt;&lt;div&gt;-Active Directory&lt;/div&gt;&lt;div&gt;-SDN&lt;/div&gt;&lt;div&gt;-IPsec(site to site VPN)&lt;/div&gt;&lt;div&gt;-Port-security&lt;/div&gt;&lt;div&gt;-Rapid PVSTP&lt;/div&gt;&lt;div&gt;&lt;br&gt;&lt;/div&gt;&lt;div&gt;&lt;br&gt;&lt;/div&gt;" style="text;strokeColor=none;align=center;fillColor=none;html=1;verticalAlign=middle;whiteSpace=wrap;rounded=0;" vertex="1" parent="1">
          <mxGeometry x="850" y="410" width="165" height="30" as="geometry" />
        </mxCell>
        <mxCell id="icldkge28k3d67pnXuYo-209" value="" style="endArrow=none;html=1;rounded=0;" edge="1" parent="1">
          <mxGeometry width="50" height="50" relative="1" as="geometry">
            <mxPoint x="530" y="660" as="sourcePoint" />
            <mxPoint x="580" y="610" as="targetPoint" />
          </mxGeometry>
        </mxCell>
        <mxCell id="icldkge28k3d67pnXuYo-216" value="" style="endArrow=none;html=1;rounded=0;" edge="1" parent="1">
          <mxGeometry width="50" height="50" relative="1" as="geometry">
            <mxPoint x="525" y="585" as="sourcePoint" />
            <mxPoint x="602.5" y="585" as="targetPoint" />
          </mxGeometry>
        </mxCell>
        <mxCell id="icldkge28k3d67pnXuYo-218" value="Network Devices used&lt;div&gt;-ASs&lt;/div&gt;&lt;div&gt;-DSs&lt;/div&gt;&lt;div&gt;-CRs&lt;/div&gt;&lt;div&gt;-FireWall (ASA FIREPOWER or FORTINET or Pfsense)&lt;/div&gt;&lt;div&gt;-IDS/IPS (also could be within Pfsense)&lt;/div&gt;&lt;div&gt;-domain-conroller&lt;/div&gt;&lt;div&gt;-SDN-Controller&lt;/div&gt;&lt;div&gt;-web-server&lt;/div&gt;&lt;div&gt;-mail-server&lt;/div&gt;&lt;div&gt;-End-Systems (Pcs)&lt;/div&gt;&lt;div&gt;-DNS&lt;/div&gt;" style="text;strokeColor=none;align=center;fillColor=none;html=1;verticalAlign=middle;whiteSpace=wrap;rounded=0;" vertex="1" parent="1">
          <mxGeometry x="1040" y="385" width="300" height="30" as="geometry" />
        </mxCell>
        <mxCell id="icldkge28k3d67pnXuYo-220" value="Design, implement, and test a secure, scalable, and automated enterprise network using a hybrid traditional and Software Defined Networking (SDN) approach, with enhanced programmability through a custom Python API interacting with Southbound and Northbound interfaces.&lt;div&gt;&lt;br&gt;&lt;div&gt;designed by Yazan alamoudi&lt;/div&gt;&lt;/div&gt;" style="text;strokeColor=none;align=center;fillColor=none;html=1;verticalAlign=middle;whiteSpace=wrap;rounded=0;" vertex="1" parent="1">
          <mxGeometry x="900" y="580" width="360" height="30" as="geometry" />
        </mxCell>
        <mxCell id="icldkge28k3d67pnXuYo-221" value="Design and Implementation of a Secure Enterprise Network Architecture with SDN Integration and Custom Python API Automation" style="text;strokeColor=none;align=center;fillColor=none;html=1;verticalAlign=middle;whiteSpace=wrap;rounded=0;" vertex="1" parent="1">
          <mxGeometry x="920" y="222.5" width="370" height="30" as="geometry" />
        </mxCell>
        <mxCell id="icldkge28k3d67pnXuYo-222" value="" style="ellipse;whiteSpace=wrap;html=1;rotation=-150;direction=south;fontColor=#6E341F;fillColor=#FF0000" vertex="1" parent="1">
          <mxGeometry x="548.585" y="315.005" width="12.83" height="160" as="geometry" />
        </mxCell>
        <mxCell id="icldkge28k3d67pnXuYo-227" value="SP" style="text;strokeColor=none;align=center;fillColor=none;html=1;verticalAlign=middle;whiteSpace=wrap;rounded=0;" vertex="1" parent="1">
          <mxGeometry x="485" y="300" width="60" height="30" as="geometry" />
        </mxCell>
      </root>
    </mxGraphModel>
  </diagram>
</mxfile>
